<?xml version="1.0" standalone="no"?>
<!DOCTYPE svg PUBLIC "-//W3C//DTD SVG 20010904//EN"
 "http://www.w3.org/TR/2001/REC-SVG-20010904/DTD/svg10.dtd">
<svg version="1.0" xmlns="http://www.w3.org/2000/svg"
 width="330.000000pt" height="307.000000pt" viewBox="0 0 330.000000 307.000000"
 preserveAspectRatio="xMidYMid meet">
<metadata>
Created by potrace 1.15, written by Peter Selinger 2001-2017
</metadata>
<g transform="translate(0.000000,307.000000) scale(0.100000,-0.100000)"
fill="#000000" stroke="none">
<path d="M395 2464 c-8 -20 -15 -39 -15 -43 0 -3 -20 -60 -45 -126 -25 -66
-45 -123 -45 -127 0 -5 18 -8 40 -8 36 0 41 3 54 35 14 32 19 35 55 35 40 0
41 -1 41 -35 0 -35 0 -35 46 -35 l47 0 -6 68 c-4 37 -7 113 -7 170 l0 102 -75
0 -75 0 -15 -36z"/>
<path d="M671 2423 c-16 -101 -31 -179 -41 -225 l-8 -38 44 0 c41 0 44 2 44
28 1 29 25 141 33 149 3 2 13 -18 22 -46 15 -46 20 -51 45 -51 23 0 35 9 60
45 34 49 53 58 46 23 -14 -65 -26 -130 -26 -138 0 -6 18 -10 39 -10 45 0 39
-16 71 172 10 64 22 129 26 143 6 24 4 25 -39 25 -45 0 -45 0 -93 -75 -27 -41
-55 -74 -62 -73 -10 2 -59 117 -62 146 0 1 -19 2 -43 2 l-43 0 -13 -77z"/>
<path d="M1142 2478 c-6 -13 -18 -43 -26 -68 -8 -25 -31 -89 -50 -144 -20 -54
-36 -100 -36 -103 0 -2 19 -3 42 -1 38 3 43 6 52 36 8 30 12 32 52 32 44 0 44
0 44 -35 0 -35 0 -35 45 -35 l45 0 -2 168 -3 167 -76 3 c-70 3 -76 1 -87 -20z"/>
<path d="M1367 2493 c-4 -3 -7 -17 -7 -29 0 -21 5 -23 53 -26 l52 -3 -1 -40
c-1 -35 -6 -72 -30 -202 -6 -33 -6 -33 34 -33 45 0 40 -11 62 125 7 39 17 88
24 110 11 40 11 40 66 43 55 3 70 12 70 45 0 15 -14 17 -158 17 -87 0 -162 -3
-165 -7z"/>
<path d="M2287 2468 c-3 -18 -11 -60 -17 -93 -6 -33 -17 -95 -24 -137 l-13
-78 39 0 c41 0 37 -7 58 100 16 84 26 91 42 34 12 -44 17 -49 44 -52 27 -3 35
3 62 45 26 39 32 44 38 29 4 -10 2 -40 -5 -68 -18 -82 -17 -88 27 -88 l39 0
26 153 c35 201 36 189 -15 185 -41 -3 -45 -7 -91 -73 -26 -38 -53 -71 -60 -73
-7 -1 -22 28 -36 73 l-24 75 -42 0 c-40 0 -43 -2 -48 -32z"/>
<path d="M1813 2375 c-14 -10 -24 -12 -28 -5 -3 5 -21 10 -39 10 l-32 0 -13
-77 c-7 -43 -17 -93 -21 -110 -8 -33 -8 -33 30 -33 37 0 39 2 45 38 19 119 52
167 75 107 7 -17 17 -25 34 -25 44 0 62 63 28 93 -23 21 -51 22 -79 2z"/>
<path d="M2003 2380 c-31 -13 -52 -48 -63 -112 -14 -74 -2 -105 44 -113 21 -4
45 -2 63 7 24 11 32 12 56 0 38 -19 87 -7 87 20 0 12 -8 26 -17 33 -15 11 -15
19 -4 84 7 40 11 74 10 75 -11 9 -157 14 -176 6z"/>
<path d="M2686 2372 c-3 -5 -11 -51 -18 -102 -11 -87 -11 -93 7 -106 22 -17
49 -18 76 -4 23 13 26 50 3 50 -14 0 -16 8 -11 53 3 28 9 67 13 85 6 31 6 32
-29 32 -20 0 -38 -4 -41 -8z"/>
<path d="M1480 1871 c-56 -12 -139 -62 -180 -108 -49 -56 -77 -116 -89 -190
-9 -57 0 -159 16 -173 4 -4 38 -23 74 -43 l67 -37 69 35 c38 19 96 58 129 87
51 45 59 49 62 31 2 -11 -3 -39 -11 -61 -13 -37 -13 -42 0 -42 23 0 117 101
141 153 20 43 42 62 42 37 0 -16 86 -97 109 -103 20 -5 21 -1 21 75 0 66 -5
89 -27 136 -35 71 -112 151 -177 180 -52 25 -182 37 -246 23z"/>
<path d="M800 1377 c0 -15 69 -237 81 -259 5 -10 9 -25 9 -33 0 -8 4 -23 9
-33 12 -23 81 -244 81 -260 0 -7 4 -20 9 -30 5 -9 19 -51 31 -92 37 -124 26
-115 143 -116 139 -1 265 -43 376 -125 l29 -21 44 29 c56 38 160 87 223 104
28 7 94 13 147 14 113 0 95 -20 153 170 20 66 41 128 46 137 5 10 9 25 9 33 0
8 4 23 9 33 9 17 21 55 76 237 15 50 36 115 46 146 10 30 19 60 19 67 0 6 -28
-4 -62 -22 -57 -30 -166 -62 -318 -95 -78 -17 -133 -33 -145 -43 -5 -4 -17 -8
-26 -8 -10 0 -42 -22 -71 -49 -53 -49 -87 -103 -107 -171 -21 -76 -31 -118
-31 -139 0 -11 -4 -21 -9 -21 -12 0 -21 26 -21 62 0 40 -46 174 -73 212 -27
37 -75 82 -104 95 -62 29 -113 46 -188 61 -145 30 -265 65 -322 96 -37 19 -63
28 -63 21z"/>
</g>
</svg>
